<svg xmlns="http://www.w3.org/2000/svg" version="1.1" xmlns:xlink="http://www.w3.org/1999/xlink" xmlns:svgjs="http://svgjs.dev/svgjs" width="1000" height="750" viewBox="0 0 1000 750"><rect width="1000" height="750" fill="#ffffff"></rect><g transform="matrix(0.834,0,0,0.834,83,114.375)"><svg viewBox="0 0 512 320" data-background-color="#ffffff" preserveAspectRatio="xMidYMid meet" height="625" width="1000" xmlns="http://www.w3.org/2000/svg" xmlns:xlink="http://www.w3.org/1999/xlink"><g id="tight-bounds" transform="matrix(1,0,0,1,0,0)"><svg viewBox="0 0 512 320" height="320" width="512"><g><svg></svg></g><g><svg viewBox="0 0 512 320" height="320" width="512"><g><path xmlns="http://www.w3.org/2000/svg" d="M96 160c0-88.366 71.634-160 160-160 88.366 0 160 71.634 160 160 0 88.366-71.634 160-160 160-88.366 0-160-71.634-160-160z" fill="#0718c4" fill-rule="nonzero" stroke="none" stroke-width="1" stroke-linecap="butt" stroke-linejoin="miter" stroke-miterlimit="10" stroke-dasharray="" stroke-dashoffset="0" font-family="none" font-weight="none" font-size="none" text-anchor="none" style="mix-blend-mode: normal" data-fill-palette-color="tertiary"></path></g><g transform="matrix(1,0,0,1,153.6,110.73805918788713)"><svg viewBox="0 0 204.8 98.52388162422574" height="98.52388162422574" width="204.8"><g><svg viewBox="0 0 204.8 98.52388162422574" height="98.52388162422574" width="204.8"><g><svg viewBox="0 0 204.8 98.52388162422574" height="98.52388162422574" width="204.8"><g id="textblocktransform"><svg viewBox="0 0 204.8 98.52388162422574" height="98.52388162422574" width="204.8" id="textblock"><g><svg viewBox="0 0 204.8 98.52388162422574" height="98.52388162422574" width="204.8"><g transform="matrix(1,0,0,1,0,0)"><svg width="204.8" viewBox="0 -34.95000076293945 72.6500015258789 34.95000076293945" height="98.52388162422574" data-palette-color="#ffffff"><path d="M21.65-2.15L35-2.15 35 0 0 0 0-2.15 13.3-2.15 0.15-34.95 6.75-34.95 17.5-8.85 28.25-34.95 34.85-34.95 21.65-2.15ZM67.8-2.15L72.65-2.15 72.65 0 61.85 0 53.5-11.75 45.75-11.75 45.75 0 35 0 35-2.15 39.85-2.15 39.85-34.95 52.85-34.95Q60.85-34.95 64.3-32.25 67.75-29.55 67.75-23.6L67.75-23.6Q67.75-14.95 60.2-12.7L60.2-12.7 67.8-2.15ZM53.1-17.1Q58.1-17.1 59.9-18.65 61.7-20.2 61.7-23.63 61.7-27.05 59.85-28.33 58-29.6 53.25-29.6L53.25-29.6 45.75-29.6 45.75-17.1 53.1-17.1Z" opacity="1" transform="matrix(1,0,0,1,0,0)" fill="#ffffff" class="undefined-text-0" data-fill-palette-color="quaternary" id="text-0"></path></svg></g></svg></g></svg></g></svg></g><g></g></svg></g></svg></g></svg></g><defs></defs></svg><rect width="512" height="320" fill="none" stroke="none" visibility="hidden"></rect></g></svg></g></svg>